<?xml version="1.0" standalone="no"?>
<!DOCTYPE svg PUBLIC "-//W3C//DTD SVG 20010904//EN"
 "http://www.w3.org/TR/2001/REC-SVG-20010904/DTD/svg10.dtd">
<svg version="1.0" xmlns="http://www.w3.org/2000/svg"
 width="552.000000pt" height="552.000000pt" viewBox="0 0 552.000000 552.000000"
 preserveAspectRatio="xMidYMid meet">
<metadata>
Created by potrace 1.14, written by Peter Selinger 2001-2017
</metadata>
<g transform="translate(0.000000,552.000000) scale(0.100000,-0.100000)"
fill="#000000" stroke="none">
<path d="M773 4364 c5 -8 -44 -11 -178 -10 -102 0 -185 -3 -185 -8 0 -4 -6 -6
-14 -3 -7 3 -23 -1 -35 -9 -11 -8 -21 -12 -21 -8 0 4 -7 -1 -16 -12 -8 -10
-12 -12 -8 -4 7 13 5 13 -9 1 -9 -7 -15 -17 -12 -21 3 -5 -4 -11 -15 -15 -11
-3 -19 -9 -18 -13 2 -4 -5 -19 -15 -33 -9 -14 -18 -37 -19 -52 -1 -15 -5 -27
-8 -27 -7 0 -5 -318 3 -326 3 -4 2 -15 -4 -25 -5 -11 -6 -19 -1 -19 4 0 8 -9
8 -19 0 -11 -4 -18 -8 -15 -4 2 -6 -5 -5 -16 1 -11 4 -20 8 -20 8 0 6 -27 -3
-35 -3 -4 -3 -19 2 -35 5 -16 4 -32 -2 -38 -6 -6 -6 -12 0 -16 7 -4 7 -17 2
-36 -6 -22 -5 -28 2 -24 11 7 10 3 -9 -43 -3 -7 1 -13 8 -13 11 0 11 -3 -1
-10 -12 -8 -12 -10 -1 -10 10 0 11 -3 2 -14 -8 -9 -8 -16 -2 -20 5 -4 8 -15 6
-26 -2 -11 1 -22 6 -25 5 -4 7 -10 4 -14 -2 -5 7 -13 21 -20 15 -6 22 -16 18
-23 -4 -7 -3 -8 4 -4 6 4 22 1 34 -6 13 -7 27 -11 32 -10 5 2 13 -2 17 -9 4
-7 14 -14 23 -15 19 -3 46 -28 46 -43 0 -6 5 -11 12 -11 6 0 9 -3 5 -6 -3 -4
0 -13 8 -21 21 -20 28 -130 11 -152 -8 -11 -8 -13 2 -7 15 9 15 4 0 -29 -6
-14 -15 -25 -20 -25 -5 0 -7 -4 -4 -9 4 -5 -7 -20 -23 -34 -17 -14 -28 -27
-25 -30 3 -3 -4 -8 -15 -12 -12 -3 -21 -11 -21 -16 0 -5 -3 -8 -8 -8 -17 3
-72 -14 -72 -23 0 -5 -4 -6 -10 -3 -6 4 -7 -1 -3 -12 3 -10 3 -15 -2 -11 -14
13 -41 -34 -40 -68 1 -19 -1 -34 -5 -34 -10 0 -7 -33 4 -41 4 -4 3 -15 -2 -26
-6 -11 -7 -25 -2 -33 5 -8 6 -18 3 -23 -10 -17 -9 -52 2 -59 6 -5 6 -8 0 -8
-8 0 -12 -99 -5 -135 2 -6 1 -12 0 -15 -7 -15 -4 -370 3 -370 5 0 6 -4 3 -8
-8 -13 16 -84 31 -89 7 -3 13 -12 13 -20 0 -8 5 -11 10 -8 6 3 10 0 10 -9 0
-8 14 -20 30 -28 17 -7 30 -16 30 -19 0 -3 6 -6 13 -7 6 -1 26 -4 42 -7 41 -7
291 -9 303 -1 5 3 23 2 39 -3 17 -5 35 -6 42 -2 11 7 91 4 98 -3 3 -2 6 -75 8
-162 2 -88 6 -168 8 -179 3 -11 6 -23 6 -26 1 -3 9 -14 19 -25 10 -10 18 -23
19 -29 0 -5 10 -15 22 -21 11 -6 19 -13 16 -16 -7 -6 51 -31 71 -31 8 0 14 -3
14 -6 0 -4 44 -6 98 -6 53 1 105 -3 116 -8 10 -5 16 -5 13 0 -3 5 74 8 176 7
119 -1 187 3 196 10 10 8 13 8 8 0 -8 -14 54 -15 72 0 10 7 13 8 8 0 -7 -12
130 -14 149 -2 6 4 14 4 18 1 11 -11 196 -11 189 0 -4 6 -1 7 6 3 21 -13 92
-16 85 -4 -5 7 -2 8 7 2 17 -11 81 -15 74 -4 -2 3 2 7 10 7 8 0 12 -3 10 -6
-2 -4 23 -6 56 -6 33 0 59 4 59 10 0 7 3 7 8 0 10 -14 104 -16 95 -2 -4 6 -1
7 8 2 18 -12 129 -14 135 -3 3 4 13 4 22 0 21 -10 104 -8 122 3 8 5 11 4 7 -1
-3 -6 77 -9 206 -8 140 0 217 -3 226 -10 9 -7 13 -7 9 -1 -5 7 90 11 297 10
167 0 301 -3 299 -7 -2 -3 5 -4 16 -1 11 3 17 10 13 17 -5 8 -3 8 8 0 8 -7 50
-11 107 -10 58 1 92 -2 92 -9 0 -6 3 -7 8 0 8 12 401 13 420 2 6 -5 12 -4 12
0 0 5 107 8 238 7 162 -1 239 2 244 10 6 8 8 7 8 -1 0 -8 14 -11 43 -9 23 2
48 -1 55 -6 8 -7 12 -7 12 2 0 7 6 10 14 7 8 -3 17 -3 20 1 4 3 12 7 19 8 42
9 59 14 74 23 10 6 15 11 11 11 -4 0 3 10 15 23 12 13 25 22 29 20 12 -6 39
86 41 145 1 12 6 22 12 22 6 0 7 3 0 8 -14 10 -14 72 -1 72 6 0 5 4 -2 9 -8 4
-14 12 -14 16 0 4 6 12 14 16 7 5 8 9 2 9 -6 0 -11 7 -11 15 0 8 4 15 9 15 5
0 6 6 1 13 -13 20 -12 68 1 60 8 -5 8 -3 0 8 -13 17 -13 158 0 178 6 9 5 12
-1 8 -7 -4 -10 34 -11 111 0 64 -1 122 -2 127 -1 6 -1 20 0 33 1 12 -4 22 -10
22 -6 0 -8 5 -5 11 4 5 -7 23 -24 40 -17 16 -31 26 -31 23 0 -4 -8 0 -17 7
-15 12 -16 12 -8 -1 8 -13 7 -13 -8 -1 -9 7 -17 10 -17 5 0 -4 -7 1 -15 12 -8
10 -15 15 -15 10 0 -5 -9 -1 -20 9 -11 10 -17 23 -13 29 3 6 3 8 -2 4 -21 -19
-71 73 -69 129 1 29 -3 40 -10 36 -8 -5 -8 -3 0 8 6 8 14 31 18 52 4 20 12 37
18 37 6 0 8 3 5 6 -7 8 70 84 85 84 5 0 7 4 3 9 -3 6 3 8 15 6 11 -2 22 1 25
6 4 5 10 7 14 4 15 -8 68 50 75 82 4 17 8 81 8 142 1 74 5 111 12 111 7 0 7 3
-1 8 -14 9 -14 132 0 132 4 0 5 6 0 13 -11 17 -12 96 -1 103 4 3 5 11 1 17
-11 17 -11 57 -1 63 4 3 5 11 1 17 -11 17 -11 67 -1 67 5 0 6 6 2 12 -5 7 -9
35 -11 62 -3 49 -22 106 -35 106 -5 0 -8 6 -8 13 0 17 -66 78 -74 70 -3 -4 -6
-1 -6 5 0 7 -9 12 -19 12 -11 0 -22 4 -25 8 -6 11 -256 10 -272 0 -6 -4 -14
-4 -18 0 -12 12 -116 10 -116 -2 0 -7 -3 -7 -8 1 -8 12 -29 13 -48 1 -6 -4
-21 2 -33 14 -18 16 -20 22 -9 29 7 5 9 9 3 9 -5 0 -10 16 -10 35 0 19 3 35 6
35 8 0 4 53 -4 67 -4 7 -3 14 1 17 10 6 8 48 -2 65 -4 5 -2 13 4 16 8 5 7 11
-1 21 -6 8 -8 14 -4 14 4 0 3 6 -2 13 -5 6 -9 19 -8 27 0 8 -2 17 -6 20 -4 3
-9 12 -11 20 -9 39 -132 118 -165 106 -7 -3 -13 -1 -13 5 0 6 -5 7 -10 4 -6
-4 -18 -1 -27 7 -9 7 -14 8 -10 2 5 -8 -14 -12 -63 -12 -51 0 -68 3 -63 11 4
8 1 7 -9 -1 -16 -13 -44 -12 -67 2 -9 6 -12 5 -8 -1 4 -6 0 -13 -8 -17 -8 -3
-15 -2 -15 2 0 4 -36 7 -80 7 -44 0 -80 -4 -80 -9 0 -5 -6 -4 -12 1 -7 5 -44
8 -81 7 -45 -2 -66 0 -61 7 3 6 -3 5 -14 -2 -17 -11 -24 -10 -38 2 -10 8 -15
9 -11 2 6 -9 -4 -12 -35 -10 -24 1 -48 6 -55 10 -6 4 -14 3 -17 -2 -8 -13 -78
-11 -95 2 -9 7 -12 7 -9 1 8 -13 -131 -13 -151 0 -10 6 -12 6 -7 -2 5 -8 -1
-12 -14 -12 -13 0 -19 4 -14 12 5 7 3 8 -7 3 -22 -14 -103 -15 -111 -2 -4 7
-8 7 -8 2 0 -7 -42 -11 -110 -12 -79 0 -108 3 -103 11 5 8 3 8 -8 0 -17 -14
-187 -13 -208 0 -9 6 -12 5 -8 -1 4 -6 0 -13 -8 -17 -8 -3 -15 -2 -15 2 0 4
-79 7 -175 7 -110 0 -175 -4 -175 -10 0 -7 -3 -7 -8 0 -4 6 -23 10 -42 10 -19
0 -38 -4 -42 -10 -5 -6 -8 -6 -8 1 0 6 -7 11 -15 11 -8 0 -15 -5 -15 -11 0 -5
-7 -1 -16 10 -8 10 -13 14 -10 7 8 -15 -83 -14 -103 1 -11 8 -13 8 -8 0 5 -8
-31 -11 -123 -11 -87 0 -130 4 -130 11 0 8 -2 8 -8 0 -10 -15 -94 -15 -85 0 5
8 3 8 -8 0 -19 -15 -100 -15 -118 0 -9 7 -12 7 -8 0 4 -7 -43 -11 -158 -11
-104 1 -162 4 -158 10 4 6 1 7 -8 1 -21 -14 -143 -14 -151 -1 -5 8 -8 8 -8 1
0 -13 -348 -13 -369 0 -9 6 -12 5 -8 -1 9 -14 -74 -13 -92 1 -11 8 -13 8 -8 0z
m-266 -247 c6 -4 13 -2 15 4 3 9 9 9 26 0 12 -6 22 -8 22 -3 0 4 27 8 60 8 33
-1 60 -5 60 -11 0 -6 3 -6 8 0 9 14 135 14 144 0 5 -7 8 -6 8 1 0 14 80 13 80
-1 0 -6 3 -7 8 0 10 14 65 14 74 1 6 -8 8 -8 8 0 0 12 69 12 90 -1 8 -5 11 -4
6 3 -4 7 1 10 14 9 11 -1 20 -5 20 -10 0 -5 7 -4 15 3 12 10 15 10 15 -1 0 -9
3 -10 8 -3 8 12 61 12 81 -1 9 -5 12 -4 7 3 -7 12 41 11 61 -1 6 -4 15 -3 18
3 5 8 11 8 20 0 7 -6 16 -7 18 -3 7 11 58 10 76 -1 10 -6 12 -5 7 2 -9 16 7
15 22 0 7 -7 12 -8 12 -2 0 8 122 11 140 4 3 -1 10 -1 15 0 36 7 85 7 85 -2 0
-5 6 -6 13 -1 16 10 47 11 73 2 12 -4 25 -5 29 -1 10 11 85 10 85 -1 0 -5 7
-4 16 4 13 10 17 10 24 0 4 -8 10 -9 13 -4 7 11 96 11 114 0 6 -4 14 -3 17 1
6 10 46 10 63 -1 6 -4 14 -4 17 1 6 10 66 10 81 0 6 -4 17 -3 25 2 9 5 20 4
29 -3 8 -7 12 -7 9 -2 -4 7 8 11 33 11 21 0 39 -4 39 -9 0 -5 7 -4 15 3 12 10
15 10 15 -1 0 -9 3 -10 8 -3 8 11 91 12 109 1 6 -4 14 -4 17 1 6 10 57 9 73
-1 6 -4 15 -2 19 4 4 8 9 7 15 -2 5 -9 9 -9 9 -3 0 13 58 12 78 0 7 -4 17 -4
24 0 19 12 88 12 88 0 0 -8 3 -8 8 0 9 13 102 12 102 -1 0 -7 3 -7 8 0 4 6 14
10 22 10 8 0 18 -4 22 -10 5 -6 8 -6 8 2 0 14 52 13 62 -2 5 -6 8 -6 8 1 0 10
32 12 65 4 6 -1 12 -1 15 0 18 7 71 7 76 -1 3 -5 13 -5 25 2 15 7 24 7 35 -2
8 -6 14 -7 14 -2 0 8 74 11 90 3 3 -1 10 -1 15 0 36 9 75 7 75 -3 0 -8 3 -8 8
-2 4 6 13 10 20 9 6 -1 17 -2 22 -3 6 0 10 -9 10 -19 0 -10 3 -22 8 -26 7 -7
8 -11 11 -37 0 -5 5 -7 11 -4 6 3 10 2 10 -3 0 -5 6 -9 13 -10 79 -11 88 -10
94 3 3 8 9 12 15 9 12 -7 49 26 42 37 -3 5 -1 9 5 9 5 0 11 10 13 22 3 21 38
36 38 17 0 -6 5 -7 11 -3 6 3 29 8 51 10 28 3 37 1 32 -8 -5 -7 -3 -8 7 -3 20
13 100 14 92 2 -4 -6 -1 -7 7 -2 22 13 64 15 72 2 6 -9 8 -9 8 1 0 12 38 11
59 -2 5 -4 12 -3 15 2 4 7 130 8 146 2 6 -3 7 -3 49 5 36 6 34 23 31 -205 0
-80 -5 -149 -10 -154 -6 -6 -5 -15 1 -23 9 -9 8 -13 0 -13 -7 0 -9 -4 -6 -10
12 -20 16 -57 17 -150 0 -87 -2 -96 -24 -112 -13 -10 -28 -22 -35 -28 -7 -5
-16 -10 -20 -10 -14 0 -118 -118 -138 -157 -11 -21 -24 -41 -30 -45 -5 -4 -6
-8 -2 -8 4 0 3 -10 -4 -21 -6 -12 -7 -19 -1 -15 5 3 4 -11 -3 -31 -12 -35 -12
-85 1 -127 5 -14 3 -16 -7 -10 -9 5 -8 -1 3 -19 10 -14 18 -35 18 -47 0 -11 5
-20 11 -20 5 0 8 -4 4 -9 -3 -5 1 -16 9 -23 7 -8 16 -23 20 -33 8 -24 26 -45
91 -105 26 -25 44 -38 40 -30 -6 10 -1 8 13 -4 12 -11 22 -15 22 -10 0 5 7 -1
15 -13 12 -18 14 -71 12 -339 -2 -308 -3 -317 -22 -321 -22 -4 -1413 -4 -2632
0 -419 1 -765 5 -769 9 -4 5 -13 3 -21 -3 -9 -9 -13 -8 -13 0 0 8 -6 9 -17 3
-10 -5 -130 -9 -268 -8 l-250 1 0 28 c1 15 -2 27 -5 27 -7 0 -4 86 4 105 3 8
0 15 -7 15 -7 0 -8 3 -2 8 14 10 17 32 4 32 -5 0 -7 5 -3 11 9 16 11 109 1
109 -5 0 -5 5 -1 12 9 14 12 128 4 128 -3 0 -6 9 -6 20 0 11 3 20 6 20 3 0 5
27 5 59 0 33 -4 57 -8 54 -5 -3 -3 4 4 15 7 11 27 25 45 32 18 8 31 17 28 21
-2 4 5 10 16 14 11 3 20 11 20 16 0 6 5 7 10 4 6 -4 10 -3 9 2 -3 20 2 34 11
28 6 -3 10 1 10 9 0 9 3 15 8 15 17 -3 32 1 30 9 -1 4 10 30 24 59 14 28 24
54 21 57 -4 3 -1 6 5 6 7 0 12 5 12 11 0 5 -6 7 -12 4 -7 -4 -6 -1 2 7 17 14
28 184 12 174 -5 -3 -8 7 -6 21 1 15 -3 36 -9 47 -6 12 -12 23 -12 26 -2 15
-37 68 -59 92 -14 15 -26 32 -26 37 0 6 -11 13 -25 17 -13 3 -27 15 -30 25 -4
10 -12 19 -18 19 -7 0 -24 10 -39 23 -24 21 -27 30 -26 89 1 36 -2 70 -6 76
-4 7 -4 12 1 12 4 0 8 23 8 50 0 28 -4 50 -8 50 -5 0 -5 5 -1 12 11 18 10 68
-1 68 -5 0 -3 5 5 10 11 7 11 10 2 10 -9 0 -10 5 -3 18 7 13 6 23 -1 30 -9 9
-9 12 -1 12 8 0 9 9 3 30 -5 17 -6 30 -2 30 4 0 7 23 7 50 0 28 -4 50 -8 50
-5 0 -5 6 0 13 4 6 6 20 5 30 -2 9 2 17 8 17 6 0 9 4 6 8 -6 10 24 9 41 -1z
m4609 -509 c11 -12 14 -57 3 -64 -5 -3 -6 -11 -2 -17 12 -19 11 -57 -1 -57 -7
0 -7 -3 -1 -8 14 -10 14 -72 1 -72 -8 0 -8 -3 -1 -8 6 -4 11 -20 11 -37 0 -16
-5 -33 -11 -37 -7 -5 -7 -8 1 -8 9 0 12 -62 4 -80 -1 -3 -1 -9 0 -15 7 -34 6
-55 -4 -55 -7 0 -7 -3 -1 -8 11 -8 13 -67 2 -78 -4 -4 -2 -13 4 -21 9 -9 8
-17 0 -27 -9 -10 -9 -16 -1 -21 8 -5 7 -12 -4 -24 -9 -10 -14 -21 -11 -24 3
-4 2 -5 -2 -2 -3 3 -12 0 -20 -6 -7 -6 -13 -8 -13 -3 0 5 -8 -2 -18 -16 -9
-14 -23 -26 -31 -28 -14 -3 -72 -64 -74 -79 -1 -4 -11 -18 -22 -31 -11 -13
-20 -27 -20 -30 -1 -4 -9 -25 -20 -46 -15 -30 -19 -62 -19 -144 0 -75 3 -107
12 -110 7 -2 10 -7 7 -12 -3 -5 2 -16 11 -24 8 -9 12 -16 8 -16 -3 0 -1 -6 5
-13 6 -8 8 -17 4 -20 -3 -4 -2 -7 4 -7 6 0 13 -10 17 -23 3 -13 17 -29 30 -37
14 -7 24 -16 23 -19 -3 -9 51 -60 57 -53 3 3 6 0 6 -6 0 -7 8 -12 18 -12 11 0
27 -8 36 -19 20 -22 29 -91 12 -91 -8 0 -8 -3 0 -8 14 -9 13 -62 0 -62 -7 0
-8 -3 -1 -8 13 -9 14 -65 0 -74 -7 -5 -7 -8 1 -8 11 0 13 -64 2 -76 -4 -4 -4
-12 -1 -18 12 -18 11 -56 -1 -56 -7 0 -8 -3 -1 -8 6 -4 11 -20 11 -37 0 -16
-5 -33 -11 -37 -7 -5 -6 -8 1 -8 9 0 12 -61 4 -80 -1 -3 -1 -9 0 -15 10 -41 5
-66 -14 -82 -20 -17 -20 -17 -6 1 14 18 14 19 -5 9 -11 -5 -71 -9 -132 -8 -62
0 -113 -3 -113 -8 0 -4 -6 -5 -12 0 -17 11 -58 11 -58 0 0 -4 -6 -5 -12 0 -17
10 -49 11 -70 1 -10 -5 -19 -4 -23 2 -7 11 -33 9 -52 -3 -7 -5 -13 -4 -13 1 0
12 -32 12 -47 -1 -8 -5 -13 -5 -13 0 0 11 -250 11 -268 0 -6 -5 -12 -4 -12 0
0 5 -13 9 -30 9 -16 1 -30 -3 -30 -8 0 -5 -6 -6 -12 -1 -19 11 -37 12 -44 2
-3 -5 -11 -6 -17 -2 -18 11 -36 12 -43 2 -3 -5 -11 -6 -17 -2 -18 11 -121 10
-129 -2 -5 -7 -8 -6 -8 1 0 7 -23 10 -65 8 -48 -2 -63 0 -58 9 5 9 3 9 -8 1
-8 -6 -27 -10 -42 -9 -15 1 -30 -2 -33 -7 -3 -4 -11 -5 -17 -1 -17 11 -87 12
-93 1 -3 -4 -11 -5 -17 -1 -17 11 -177 11 -170 0 3 -5 -2 -5 -13 1 -17 8 -61
9 -89 2 -5 -1 -12 -1 -15 0 -16 8 -178 4 -173 -4 4 -5 1 -6 -8 0 -19 12 -122
12 -131 -1 -5 -7 -8 -6 -8 1 0 9 -114 12 -155 4 -5 -1 -12 -1 -15 0 -16 7 -60
5 -60 -2 0 -5 -6 -6 -12 -1 -19 11 -61 12 -75 1 -7 -6 -13 -6 -13 -1 0 10
-155 11 -166 1 -4 -4 -12 -4 -17 -1 -20 12 -57 12 -57 0 0 -8 -3 -8 -8 -2 -9
13 -65 14 -74 0 -5 -7 -8 -6 -8 2 0 12 -24 12 -36 0 -4 -3 -12 -3 -18 0 -17
11 -66 10 -66 -2 0 -6 -3 -7 -8 0 -9 13 -52 15 -52 3 0 -5 -6 -6 -12 -1 -18
10 -70 12 -90 1 -10 -5 -19 -4 -24 3 -4 7 -9 8 -17 0 -7 -7 -16 -7 -29 0 -12
7 -18 6 -18 -1 0 -7 -5 -8 -12 -3 -19 11 -78 10 -78 -2 0 -5 -4 -4 -9 3 -9 15
-17 15 -43 1 -11 -6 -19 -5 -23 1 -5 8 -11 8 -19 1 -7 -6 -16 -8 -20 -4 -10
10 -46 11 -46 1 0 -5 -6 -6 -12 -1 -20 12 -48 14 -48 3 0 -7 -7 -7 -20 0 -15
8 -20 8 -20 -2 0 -10 -2 -10 -9 0 -11 17 -21 17 -32 0 -7 -10 -9 -10 -9 0 0 9
-5 10 -17 3 -11 -6 -24 -6 -35 0 -10 6 -19 5 -23 -1 -4 -7 -13 -7 -24 0 -12 6
-22 5 -29 -2 -8 -8 -12 -8 -12 -2 0 12 -39 12 -57 1 -7 -5 -13 -4 -13 2 0 6
-7 7 -17 4 -12 -5 -14 -3 -8 8 5 8 -1 5 -13 -5 -12 -11 -22 -14 -22 -9 0 13
-32 12 -42 -2 -5 -6 -8 -5 -8 3 0 9 -6 10 -17 5 -17 -8 -37 -9 -55 -3 -5 1
-17 3 -28 4 -11 0 -20 6 -21 11 0 6 -5 15 -10 21 -5 6 -6 14 -2 18 10 10 11
46 1 46 -5 0 -6 5 -2 11 3 6 8 45 9 86 2 41 5 76 7 78 6 6 158 10 158 4 0 -7
67 -2 80 6 6 3 10 2 10 -4 0 -7 8 -7 22 -2 13 4 36 4 52 0 17 -5 32 -5 35 -1
7 9 32 9 46 0 6 -4 17 -3 25 2 9 5 19 5 26 -1 8 -7 14 -6 19 1 5 7 11 8 19 1
7 -6 26 -7 48 -2 20 5 42 5 49 0 7 -4 20 -4 28 1 9 5 23 4 33 -1 12 -7 18 -6
18 1 0 6 5 8 13 3 17 -10 39 -10 55 1 8 6 16 6 20 0 8 -10 92 -13 92 -2 0 4
10 5 23 2 30 -7 95 -7 106 1 5 3 12 1 15 -4 3 -4 23 -5 45 -1 21 4 46 3 55 -2
10 -6 16 -5 16 1 0 7 8 7 25 1 17 -7 25 -6 25 1 0 8 5 8 14 0 11 -9 20 -10 35
-1 15 8 27 8 41 0 11 -6 25 -8 31 -4 10 6 72 6 144 1 17 -2 40 1 51 4 12 5 27
3 34 -4 10 -9 11 -9 5 1 -6 11 -3 12 11 4 11 -5 28 -6 39 -2 11 4 29 4 41 0
11 -5 27 -4 34 0 8 5 17 7 20 5 15 -9 60 -13 65 -5 3 5 18 5 34 0 15 -4 34 -4
41 0 7 5 23 6 34 3 19 -5 32 -5 69 -3 6 1 21 1 32 1 11 -1 32 -1 48 -1 15 0
39 0 55 0 15 -1 55 -1 90 0 35 0 68 -2 73 -5 5 -4 9 -3 9 2 0 10 71 10 88 -1
7 -4 12 -3 12 3 0 6 11 6 30 1 19 -5 30 -5 30 1 0 6 8 5 20 -1 11 -6 20 -7 20
-2 0 9 47 8 56 -1 3 -3 21 -1 40 3 20 5 37 4 40 -2 4 -5 10 -5 17 0 7 5 21 7
32 5 11 -3 28 -5 38 -4 9 0 48 1 86 2 91 2 112 -6 107 -37 -3 -13 -1 -26 3
-29 5 -2 9 -16 9 -29 0 -26 22 -56 41 -56 6 0 11 -5 11 -11 0 -6 9 -9 20 -6
11 3 22 1 25 -3 7 -11 42 -5 59 10 7 5 16 8 19 5 4 -3 5 -2 2 2 -3 3 4 12 15
20 11 8 20 25 20 39 0 13 4 24 9 24 4 0 7 13 5 29 -3 22 2 31 22 40 17 8 30 8
38 2 7 -6 17 -6 26 -1 9 5 19 5 26 -1 8 -7 14 -6 19 1 4 7 11 8 18 2 7 -6 32
-7 59 -3 25 4 54 4 62 -1 9 -5 16 -5 16 -1 0 5 10 10 23 10 39 3 68 13 62 22
-2 5 6 12 19 15 23 6 77 66 59 66 -4 0 -2 4 5 8 16 11 24 43 26 105 0 26 3 47
6 47 3 0 6 9 6 20 0 11 -3 20 -7 20 -3 0 -4 12 -2 28 2 15 4 34 3 42 -1 35 0
66 4 87 3 13 0 25 -5 28 -5 4 -7 11 -3 16 10 16 12 59 3 59 -5 0 -4 11 1 25 6
15 6 26 -1 30 -5 4 -6 11 -3 17 4 6 6 32 5 57 -1 44 -1 81 1 126 1 11 -2 31
-6 44 -5 15 -5 21 2 17 6 -4 7 8 1 35 -5 22 -7 44 -5 48 3 4 -4 18 -15 29 -11
12 -16 22 -12 22 18 0 -35 28 -64 35 -18 3 -33 11 -33 16 0 6 -4 8 -9 5 -11
-7 -74 52 -98 94 -11 19 -20 45 -18 58 1 12 -2 22 -7 22 -5 0 -6 12 -2 28 9
42 15 76 16 90 1 6 5 12 10 12 4 0 8 6 8 13 0 7 9 19 19 27 11 7 18 17 15 22
-3 4 1 8 9 8 8 0 22 9 32 20 10 11 20 18 23 15 3 -2 17 2 31 9 14 8 34 17 43
20 34 10 52 55 54 136 1 42 5 86 8 98 4 11 2 23 -4 27 -6 4 -7 12 -1 24 9 16
30 17 219 17 116 -1 214 -4 218 -8z"/>
<path d="M3640 3827 c-22 -21 -37 -44 -34 -51 3 -8 0 -17 -6 -21 -8 -5 -8 -11
1 -21 6 -8 8 -14 3 -14 -5 0 -9 -16 -9 -35 0 -19 3 -35 8 -35 4 0 6 -3 5 -7
-2 -10 24 -65 37 -79 14 -14 66 -32 87 -28 27 4 75 46 82 72 4 12 12 22 19 22
8 0 7 4 -3 10 -11 7 -11 10 -2 10 7 0 10 4 7 10 -10 17 -14 50 -6 50 4 0 6 14
3 30 -2 17 -8 30 -11 30 -4 0 -8 6 -8 13 -1 38 -22 67 -47 67 -9 0 -16 3 -16
8 0 4 -16 7 -36 7 -28 1 -44 -7 -74 -38z"/>
<path d="M1953 3763 c4 -7 -7 -10 -31 -9 -47 2 -184 -19 -208 -32 -11 -6 -23
-10 -27 -10 -17 -1 -107 -46 -107 -54 0 -5 -4 -7 -8 -4 -10 6 -121 -80 -129
-100 -3 -8 -10 -14 -17 -14 -12 0 -16 -6 -76 -105 -43 -69 -78 -160 -75 -192
1 -12 -2 -20 -7 -17 -9 6 -9 0 -10 -143 -1 -69 3 -108 12 -118 8 -10 9 -15 1
-15 -7 0 -6 -11 3 -32 8 -18 25 -59 37 -90 13 -32 26 -58 31 -58 4 0 7 -3 6
-7 -4 -14 36 -66 97 -128 81 -81 142 -122 225 -150 3 -1 17 -7 31 -13 15 -6
47 -14 70 -17 24 -3 58 -9 74 -11 39 -7 632 -7 643 0 5 3 8 82 8 177 -1 153
-3 173 -18 178 -10 3 -131 5 -270 5 -190 -1 -267 2 -308 13 -30 7 -56 18 -58
23 -2 6 -10 10 -17 10 -16 0 -85 70 -85 87 0 7 -4 13 -9 13 -8 0 -22 30 -25
55 -1 6 -4 15 -7 20 -4 6 -6 22 -5 38 1 15 -3 27 -9 27 -6 0 -6 3 1 8 6 4 11
23 11 43 -1 81 85 193 174 230 25 10 108 15 329 19 l295 5 0 165 c0 91 -1 172
-3 181 -3 11 -13 16 -33 14 -16 -1 -29 2 -29 9 0 7 -3 7 -8 1 -9 -13 -55 -14
-64 0 -5 7 -8 6 -8 -1 0 -14 -132 -13 -142 1 -5 7 -8 7 -8 0 0 -13 -130 -13
-149 -1 -9 6 -12 5 -8 -1 8 -13 -62 -12 -82 1 -9 6 -12 5 -8 -1z"/>
<path d="M2612 3758 c-7 -7 -12 -9 -12 -5 0 4 -10 3 -21 -4 -17 -9 -19 -13 -8
-20 8 -5 10 -9 4 -9 -6 0 -10 -29 -10 -67 0 -38 5 -71 10 -75 7 -5 7 -8 0 -8
-11 0 -12 -101 -1 -118 3 -6 2 -12 -3 -14 -5 -2 -5 -13 0 -25 8 -22 14 -23 98
-23 124 0 121 -5 121 185 0 170 -5 185 -60 181 -16 -1 -30 3 -30 8 0 8 -3 8
-8 1 -8 -12 -41 -13 -58 -3 -6 4 -16 2 -22 -4z"/>
<path d="M3675 3378 c-44 -26 -75 -69 -70 -100 2 -10 0 -18 -4 -18 -9 0 -8
-31 2 -47 5 -7 3 -21 -3 -32 -7 -13 -7 -22 0 -26 6 -4 8 -11 5 -16 -4 -5 -2
-9 4 -9 6 0 13 -11 17 -24 4 -16 19 -30 42 -39 21 -8 38 -12 40 -8 1 4 16 5
32 3 19 -3 30 0 30 7 0 7 3 10 8 8 9 -5 42 30 34 37 -3 3 0 6 6 6 6 0 9 7 5
17 -5 12 -3 14 7 8 10 -6 10 -4 2 11 -6 11 -7 27 -1 41 5 14 4 25 -2 29 -8 4
-7 9 2 15 8 5 9 9 3 9 -6 0 -10 14 -9 30 1 17 -1 30 -5 30 -8 0 -34 51 -32 62
1 4 -6 6 -16 6 -9 0 -30 2 -47 5 -16 3 -39 1 -50 -5z"/>
<path d="M3690 2899 c0 -5 -4 -7 -10 -4 -12 7 -71 -45 -64 -56 3 -5 1 -9 -4
-9 -5 0 -8 -12 -7 -27 1 -16 -2 -34 -8 -40 -6 -9 -5 -13 3 -13 9 0 9 -4 3 -12
-12 -16 -10 -31 12 -82 22 -52 35 -63 80 -70 22 -4 40 -8 42 -10 6 -6 70 58
67 65 -2 4 3 9 11 13 9 3 12 12 8 22 -4 10 -2 15 4 11 13 -8 11 35 -2 46 -7 6
-6 10 1 13 12 5 6 61 -7 70 -5 3 -9 12 -9 20 0 18 -24 44 -58 61 -30 16 -62
17 -62 2z"/>
<path d="M2575 2800 c-9 -15 -3 -350 6 -356 17 -10 181 -4 196 7 17 15 19 334
2 345 -14 8 -199 12 -204 4z"/>
<path d="M3672 2423 c-18 -9 -40 -28 -49 -44 -9 -15 -21 -25 -26 -22 -5 3 -4
-4 2 -16 9 -16 9 -21 -1 -21 -10 0 -10 -2 1 -9 9 -6 10 -10 2 -16 -9 -5 -9
-10 0 -21 6 -8 7 -14 2 -14 -10 0 -11 -29 -1 -45 3 -6 9 -25 13 -43 3 -18 11
-30 16 -26 5 3 9 -5 9 -18 0 -16 3 -19 9 -10 7 11 9 11 14 -1 3 -9 16 -14 31
-13 14 2 26 -1 26 -7 0 -5 5 -5 13 2 8 6 17 8 20 4 4 -3 7 -1 7 5 0 7 3 11 8
9 7 -2 52 39 52 48 0 3 0 10 0 16 0 5 4 8 9 4 10 -6 7 27 -4 45 -3 6 0 10 7
10 9 0 9 3 -2 10 -8 5 -10 10 -5 10 7 0 9 15 7 35 -2 19 -8 35 -14 35 -5 0 -7
4 -4 8 2 4 -2 22 -11 40 -14 28 -29 40 -58 43 -5 0 -17 5 -25 9 -10 5 -28 2
-48 -7z"/>
</g>
</svg>
